<svg width="727" height="629" viewBox="0 0 727 629" fill="none" xmlns="http://www.w3.org/2000/svg">
<path d="M159.5 208.5C157.395 205.545 127 149.5 122 139.5C117 129.5 122.5 120 122.5 120C122.5 120 191.695 8.67777 196 5.00026C200.305 1.32276 202.8 0.817613 209 1.00026C215.2 1.18291 498 3.50026 504.5 3.50026C511 3.50026 513 4 514 5.00026C515 6.00053 535 29.5003 535 29.5003C539.622 34.6787 538.438 35.6332 532 35.5003L294 34.5003C290.641 26.4362 287.966 21.9339 278.5 14.0003L271 10.0003C261.854 8.34555 257.5 7.00026 247 10.5003C236.5 14.0003 230 20.5005 227 31.5003C224 42.5 224.126 48.3494 227 58.5003C233.618 69.8919 238.374 72.9689 247 78.0003C259.163 81.1134 265.798 80.2979 277.5 77.0003L282 73.5003C288.589 66.844 291.263 62.903 294 55.5003L297.5 52.0003H542.5L560.5 74.0003C564.586 79.2784 563.825 80.7997 556 80.5003L244 83.0003C240.846 84.3051 239.321 85.8612 237 90.0003C237 90.0003 168.901 206.003 167.5 208.5C166.099 210.998 161.605 211.455 159.5 208.5Z" fill="#108A23"/>
<path d="M521.526 147.668C525.148 147.448 588.784 151.372 599.914 152.431C611.043 153.489 616.186 163.188 616.186 163.188C616.186 163.188 673.925 280.861 674.762 286.46C675.599 292.06 679.652 296.565 676.211 301.727C672.771 306.888 522.5 556.077 522.5 556.077C518.623 561.561 515.609 563.247 510 564.5C504.391 565.753 475.094 564.5 475.094 564.5C469.794 564.942 468.848 559.926 470.844 555.242L597.812 353.936C606.431 355.361 611.667 355.479 623.411 351.655L630.778 347.414C637.028 340.535 640.476 337.555 643.072 326.796C645.668 316.037 643.6 307.08 635.861 298.707C628.123 290.334 623.095 287.341 612.964 284.399C599.796 283.975 594.667 286.377 585.829 291.026C576.743 299.691 573.919 305.751 570.514 317.422L571.098 323.093C573.251 332.208 575.176 336.564 580.003 342.808L583.5 348.5L461.383 559.878L423.091 559.009C416.45 559.677 415.563 558.225 419.963 551.748L583.178 285.833C583.743 282.466 583.232 280.348 580.951 276.187C580.951 276.187 518.662 156.964 517.287 154.452C515.912 151.941 517.904 147.887 521.526 147.668Z" fill="#108A23"/>
<path d="M385.601 488.847C384.037 492.121 349.755 545.876 343.433 555.097C337.111 564.318 326.135 564.114 326.135 564.114C326.135 564.114 195.224 557.565 189.921 555.582C184.617 553.6 178.712 554.96 175.866 549.449C173.02 543.937 27.9263 291.698 27.9263 291.698C25.0098 285.649 24.9959 282.195 26.6195 276.682C28.2431 271.169 43.5422 246.153 43.5422 246.153C45.7253 241.303 50.5707 242.907 53.7005 246.924L168.211 455.568C162.786 462.415 160.145 466.937 157.795 479.063L157.933 487.562C160.92 496.364 161.854 500.824 170.006 508.31C178.157 515.797 186.994 518.331 198.069 515.622C209.144 512.913 214.199 509.967 221.684 502.532C228.438 491.221 228.824 485.57 229.043 475.586C225.869 463.439 221.939 458.031 213.381 449.395L208.138 447.156C199.122 444.62 194.379 444.192 186.578 445.387L179.904 445.685L54.2318 236.401L73.5563 203.332C76.1917 197.199 77.8914 197.128 81.423 204.116L234.87 475.786C237.541 477.912 239.641 478.491 244.386 478.514C244.386 478.514 378.859 481.836 381.723 481.85C384.586 481.865 387.165 485.573 385.601 488.847Z" fill="#108A23"/>
<ellipse cx="260.5" cy="43.5" rx="23.5" ry="22.5" fill="#108A23"/>
<ellipse cx="611.5" cy="322.5" rx="23.5" ry="22.5" fill="#108A23"/>
<ellipse cx="195.5" cy="483.5" rx="23.5" ry="22.5" fill="#108A23"/>
<path d="M274.5 140.5C271.085 141.951 269.931 143.397 268.5 146.5L194 279.5C192 284 191.5 284.5 194 289.5L232.5 350.5H274C278.5 350.5 277 348.5 274 343.5L239 285.5C237.939 282.529 237.777 280.802 239 277.5L315 148C319 141 320 140.5 312.5 140.5H274.5Z" fill="#108A23"/>
<path d="M520.451 284.611C520.966 280.936 520.321 279.202 518.398 276.378L442.765 144.019C439.938 139.987 439.767 139.3 434.194 138.868L362.077 140.452L340.703 176.024C338.386 179.882 340.873 179.626 346.704 179.63L414.446 179.501C417.538 180.122 419.103 180.872 421.303 183.621L493.163 315.463C497.103 322.497 497.017 323.612 500.88 317.183L520.451 284.611Z" fill="#108A23"/>
<path d="M271.791 426.742C274.754 428.974 276.584 429.25 279.987 428.938L432.418 426.957C437.315 426.439 437.998 426.622 441.078 421.957L474.656 358.115L453.906 322.175C451.656 318.278 450.674 320.577 447.844 325.675L415.114 384.986C413.072 387.39 411.657 388.395 408.186 388.986L258.036 387.918C249.974 387.954 249.041 387.338 252.791 393.833L271.791 426.742Z" fill="#108A23"/>
</svg>
